<?xml version="1.0" encoding="utf-8"?>
<!-- Generator: Adobe Illustrator 19.2.1, SVG Export Plug-In . SVG Version: 6.00 Build 0)  -->
<svg version="1.1" id="Layer_1" xmlns="http://www.w3.org/2000/svg" xmlns:xlink="http://www.w3.org/1999/xlink" x="0px" y="0px"
	 viewBox="0 0 1024 768" style="enable-background:new 0 0 1024 768;" xml:space="preserve">
<style type="text/css">
	.st0{fill:#8F95A1;}
	.st1{fill:#B4B8C2;}
	.st2{fill:#39393E;}
	.st3{fill:#2B2D2E;}
	.st4{fill:#CCB706;}
	.st5{fill:none;stroke:#39393E;stroke-width:3;stroke-miterlimit:10;}
	.st6{fill:none;stroke:#39393E;stroke-width:3;stroke-linecap:round;stroke-miterlimit:10;}
	.st7{display:none;}
	.st8{display:inline;}
	.st9{fill:none;stroke:#9CA0A5;stroke-width:7.012;stroke-linecap:round;stroke-miterlimit:10;}
	.st10{fill:none;stroke:#808081;stroke-width:4.0068;stroke-linecap:round;stroke-miterlimit:10;}
	.st11{fill:#434448;}
	.st12{fill:none;stroke:#434448;stroke-width:9.0154;stroke-miterlimit:10;}
	.st13{fill:none;stroke:#39393E;stroke-width:3.0851;stroke-miterlimit:10;}
	.st14{fill:#A5A8B1;}
	.st15{fill:#010202;}
	.st16{display:inline;fill:#9CA0A5;}
	.st17{display:inline;fill:#808081;}
	.st18{fill:#808081;}
	.st19{display:inline;fill:none;stroke:#808081;stroke-width:3.0051;stroke-miterlimit:10;}
	.st20{display:inline;fill:none;stroke:#B4B8C2;stroke-width:4.0068;stroke-miterlimit:10;}
	.st21{display:inline;fill:#39393E;}
	.st22{fill:#538199;}
	.st23{display:inline;fill:#A5A8B1;}
	.st24{display:inline;fill:#F7931E;}
	.st25{fill:#868C96;}
	.st26{fill:#9CA0A5;}
</style>
<rect x="94.5" y="465" class="st0" width="834.9" height="184.4"/>
<rect x="93.5" y="22" class="st1" width="834.9" height="442.5"/>
<rect x="94.5" y="464.4" class="st2" width="834.9" height="6.6"/>
<path class="st3" d="M988.8,0h-65.5H100.6h-5.3H0v697.4v45.8V768h923.4h5.3h95.3V0H988.8z M99.9,650.6V12.6h824.2v637.9H99.9z"/>
<g>
	<path class="st4" d="M924.1,106.1v38.7H784.9c-10.7,0-19.3-8.7-19.3-19.3s8.7-19.3,19.3-19.3L924.1,106.1L924.1,106.1z"/>
</g>
<g>
	<circle class="st5" cx="784.6" cy="282.7" r="11.4"/>
	<path class="st6" d="M772.7,268.5c1.1-1.2,2.5-2.1,4-2.7c1.3-0.5,2.7-0.8,4.2-0.8c4.9,0,9,3.9,10.7,8.2"/>
	<path class="st6" d="M802.6,281.6c0.2,1.6,0.1,3.3-0.4,4.8c-0.4,1.4-1.1,2.6-2,3.8c-3,3.8-8.1,4.8-12.5,3.5"/>
	<path class="st6" d="M774.6,296.6c-1.4-0.8-2.7-1.9-3.7-3.2c-0.9-1.1-1.5-2.4-1.9-3.8c-1.3-4.7,1.4-9.7,5.1-12.4"/>
</g>
<g id="Old_lines_1_" class="st7">
	<g class="st8">
		<g>
			<line class="st9" x1="505.8" y1="556.6" x2="537.6" y2="556.6"/>
			<line class="st9" x1="412" y1="613.3" x2="433.7" y2="613.3"/>
			<line class="st9" x1="430.4" y1="481.2" x2="430.4" y2="500.1"/>
			<line class="st9" x1="613.3" y1="499.6" x2="613.1" y2="481.2"/>
			<line class="st9" x1="430.4" y1="500.1" x2="506.5" y2="556.6"/>
			<line class="st9" x1="612.3" y1="500.1" x2="536.2" y2="556.6"/>
			<line class="st9" x1="434.2" y1="613.4" x2="506.5" y2="557.2"/>
			<line class="st9" x1="608.7" y1="613.4" x2="536.2" y2="557.2"/>
			<line class="st9" x1="608.6" y1="613.3" x2="630.3" y2="613.3"/>
		</g>
	</g>
	<g class="st8">
		<g>
			<line class="st9" x1="685.6" y1="613.3" x2="707.3" y2="613.3"/>
			<line class="st9" x1="857.5" y1="499.6" x2="857.3" y2="481.2"/>
			<line class="st9" x1="856.6" y1="500.1" x2="780.5" y2="556.6"/>
			<line class="st9" x1="707.7" y1="613.4" x2="780.2" y2="557.2"/>
		</g>
	</g>
	<g id="Old_lines" class="st8">
		<g>
			<line class="st10" x1="505.8" y1="556.6" x2="537.6" y2="556.6"/>
			<line class="st10" x1="412" y1="613.3" x2="433.7" y2="613.3"/>
			<line class="st10" x1="430.4" y1="481.2" x2="430.4" y2="500.1"/>
			<line class="st10" x1="613.3" y1="499.6" x2="613.1" y2="481.2"/>
			<line class="st10" x1="430.4" y1="500.1" x2="506.5" y2="556.6"/>
			<line class="st10" x1="612.3" y1="500.1" x2="536.2" y2="556.6"/>
			<line class="st10" x1="434.2" y1="613.4" x2="506.5" y2="557.2"/>
			<line class="st10" x1="608.7" y1="613.4" x2="536.2" y2="557.2"/>
			<line class="st10" x1="608.6" y1="613.3" x2="630.3" y2="613.3"/>
		</g>
		<g>
			<line class="st10" x1="685.6" y1="613.3" x2="707.3" y2="613.3"/>
			<line class="st10" x1="857.5" y1="499.6" x2="857.3" y2="481.2"/>
			<line class="st10" x1="856.6" y1="500.1" x2="780.5" y2="556.6"/>
			<line class="st10" x1="707.7" y1="613.4" x2="781" y2="556.4"/>
		</g>
	</g>
</g>
<g>
	<path class="st11" d="M912.1,22c6.6,0,12,5.4,12,12v596c0,6.6-5.4,12-12,12H111.9c-6.6,0-12-5.4-12-12V34c0-6.6,5.4-12,12-12
		L912.1,22 M912.1,8H111.9c-14.4,0-26,11.7-26,26v596c0,14.4,11.7,26,26,26H912c14.4,0,26-11.7,26-26V34C938.1,19.7,926.4,8,912.1,8
		L912.1,8z"/>
</g>
<line class="st12" x1="99.9" y1="458.7" x2="-1.3" y2="458.7"/>
<line class="st12" x1="1025.3" y1="458.7" x2="924.1" y2="458.7"/>
<circle class="st13" cx="784.9" cy="125.4" r="17.8"/>
<g>
	<path class="st2" d="M782.4,134.9c0-1.4,1.2-2.6,2.6-2.6c1.3,0,2.5,1.2,2.5,2.6c0,1.3-1.2,2.5-2.5,2.5
		C783.5,137.4,782.4,136.2,782.4,134.9z"/>
</g>
<circle class="st14" cx="848.3" cy="125.4" r="8.4"/>
<g>
	<path class="st15" d="M264.4,366.6h-9.8v-7.1h1.1v5.9h3v-5.4h1.1v5.4h3.4v-6h1.1V366.6z"/>
	<path class="st15" d="M264.4,357.5h-9.8v-1.2h9.8V357.5z"/>
	<path class="st15" d="M262.1,349.6l0.2-1.3c0.7,0.2,1.3,0.5,1.7,1.1c0.4,0.5,0.6,1.2,0.6,2.1c0,1-0.3,1.9-1,2.5s-1.6,0.9-2.7,0.9
		c-1.2,0-2.1-0.3-2.8-0.9s-1-1.5-1-2.4c0-1,0.3-1.8,1-2.4s1.6-0.9,2.7-0.9c0.1,0,0.2,0,0.3,0v5.3c0.8-0.1,1.4-0.2,1.8-0.7
		c0.4-0.4,0.6-0.9,0.6-1.5c0-0.4-0.1-0.8-0.4-1.1C263,350,262.6,349.8,262.1,349.6z M260.1,353.6v-4c-0.6,0.1-1,0.2-1.3,0.5
		c-0.5,0.4-0.7,0.9-0.7,1.5c0,0.5,0.2,1,0.5,1.4C259,353.3,259.5,353.5,260.1,353.6z"/>
	<path class="st15" d="M264.4,346.8h-9.8v-1.2h5.6l-2.9-2.8v-1.6l2.7,2.7l4.5-3v1.5l-3.7,2.4l0.8,0.8h2.8V346.8z"/>
	<path class="st15" d="M263.3,337.2l1.1-0.2c0.1,0.4,0.1,0.7,0.1,0.9c0,0.4-0.1,0.8-0.2,1c-0.1,0.2-0.3,0.4-0.5,0.5
		c-0.2,0.1-0.7,0.1-1.5,0.1h-4.1v0.9h-1v-0.9h-1.8l-0.7-1.2h2.5v-1.2h1v1.2h4.2c0.4,0,0.5,0,0.7-0.1c0.1-0.1,0.2-0.1,0.2-0.2
		c0.1-0.1,0.1-0.2,0.1-0.4C263.3,337.6,263.3,337.4,263.3,337.2z"/>
	<path class="st15" d="M264.4,336h-7.2v-1.1h1.1c-0.5-0.3-0.8-0.5-1-0.8c-0.2-0.2-0.2-0.5-0.2-0.8c0-0.4,0.1-0.8,0.4-1.3l1.1,0.4
		c-0.2,0.3-0.2,0.6-0.2,0.9c0,0.2,0.1,0.5,0.2,0.7c0.2,0.2,0.4,0.4,0.7,0.4c0.4,0.1,0.9,0.2,1.4,0.2h3.7L264.4,336L264.4,336z"/>
	<path class="st15" d="M260.8,331.9c-1.3,0-2.3-0.4-3-1.1c-0.5-0.6-0.8-1.4-0.8-2.2c0-1,0.3-1.8,1-2.4s1.5-0.9,2.7-0.9
		c0.9,0,1.6,0.1,2.2,0.4s1,0.7,1.2,1.2c0.3,0.5,0.4,1.1,0.4,1.8c0,1-0.3,1.8-1,2.4C263,331.6,262,331.9,260.8,331.9z M260.8,330.7
		c0.9,0,1.6-0.2,2.1-0.6c0.4-0.4,0.7-0.9,0.7-1.5s-0.2-1.1-0.7-1.5s-1.1-0.6-2.1-0.6c-0.9,0-1.6,0.2-2,0.6c-0.4,0.4-0.7,0.9-0.7,1.5
		s0.2,1.1,0.7,1.5S259.9,330.7,260.8,330.7z"/>
	<path class="st15" d="M264.4,323.8h-7.2v-1.1h1c-0.8-0.5-1.2-1.3-1.2-2.3c0-0.4,0.1-0.8,0.2-1.2c0.2-0.4,0.4-0.6,0.6-0.8
		c0.2-0.2,0.5-0.3,0.9-0.4c0.2-0.1,0.6-0.1,1.1-0.1h4.4v1.2H260c-0.5,0-0.8,0.1-1.1,0.1c-0.2,0.1-0.4,0.2-0.6,0.5
		c-0.1,0.2-0.2,0.5-0.2,0.8c0,0.5,0.2,1,0.5,1.3c0.3,0.4,1,0.5,1.9,0.5h3.9L264.4,323.8L264.4,323.8z"/>
	<path class="st15" d="M255.9,316.1h-1.4v-1.2h1.4V316.1z M264.4,316.1h-7.2v-1.2h7.1L264.4,316.1L264.4,316.1z"/>
	<path class="st15" d="M264.4,313h-9.8v-1.2h5.6l-2.9-2.8v-1.6l2.7,2.7l4.5-3v1.5l-3.7,2.4l0.8,0.8h2.8V313z"/>
	<path class="st15" d="M260.8,306.6c-1.3,0-2.3-0.4-3-1.1c-0.5-0.6-0.8-1.4-0.8-2.2c0-1,0.3-1.8,1-2.4s1.5-0.9,2.7-0.9
		c0.9,0,1.6,0.1,2.2,0.4s1,0.7,1.2,1.2c0.3,0.5,0.4,1.1,0.4,1.8c0,1-0.3,1.8-1,2.4C263,306.3,262,306.6,260.8,306.6z M260.8,305.3
		c0.9,0,1.6-0.2,2.1-0.6c0.4-0.4,0.7-0.9,0.7-1.5c0-0.6-0.2-1.1-0.7-1.5c-0.4-0.4-1.1-0.6-2.1-0.6c-0.9,0-1.6,0.2-2,0.6
		c-0.4,0.4-0.7,0.9-0.7,1.5c0,0.6,0.2,1.1,0.7,1.5C259.2,305.2,259.9,305.3,260.8,305.3z"/>
	<path class="st15" d="M264.4,298.5h-7.2v-1.1h1c-0.8-0.5-1.2-1.3-1.2-2.3c0-0.4,0.1-0.8,0.2-1.2c0.2-0.4,0.4-0.6,0.6-0.8
		c0.2-0.2,0.5-0.3,0.9-0.4c0.2-0.1,0.6-0.1,1.1-0.1h4.4v1.2H260c-0.5,0-0.8,0.1-1.1,0.1c-0.2,0.1-0.4,0.2-0.6,0.5
		c-0.1,0.2-0.2,0.5-0.2,0.8c0,0.5,0.2,1,0.5,1.3c0.3,0.4,1,0.5,1.9,0.5h3.9L264.4,298.5L264.4,298.5z"/>
	<path class="st15" d="M254,288.7c0-0.5,0.1-1,0.4-1.5c0.2-0.5,0.6-0.8,1.1-1.1c0.5-0.2,1-0.4,1.5-0.4c0.5,0,1,0.1,1.5,0.4
		c0.5,0.2,0.8,0.6,1.1,1.1c0.2,0.5,0.4,1,0.4,1.5c0,0.5-0.1,1-0.4,1.5c-0.2,0.5-0.6,0.8-1.1,1.1c-0.5,0.2-1,0.4-1.5,0.4
		c-0.5,0-1-0.1-1.5-0.4c-0.5-0.2-0.8-0.7-1.1-1.1C254.1,289.8,254,289.3,254,288.7z M254.5,288.7c0,0.4,0.1,0.8,0.3,1.2
		c0.2,0.4,0.5,0.7,0.9,0.9c0.4,0.2,0.8,0.4,1.2,0.4s0.8-0.1,1.2-0.3c0.4-0.2,0.7-0.5,0.9-0.9c0.2-0.4,0.3-0.8,0.3-1.2
		s-0.1-0.8-0.3-1.2c-0.2-0.4-0.5-0.7-0.9-0.9c-0.4-0.2-0.8-0.3-1.2-0.3s-0.8,0.1-1.2,0.3c-0.4,0.2-0.7,0.5-0.9,0.9
		C254.6,287.9,254.5,288.4,254.5,288.7z M258.6,290.1h-3.2V289c0-0.4,0-0.7,0.1-0.8c0.1-0.1,0.2-0.3,0.3-0.4
		c0.1-0.1,0.3-0.1,0.5-0.1c0.2,0,0.4,0.1,0.6,0.2c0.2,0.2,0.2,0.4,0.3,0.7c0.1-0.1,0.1-0.2,0.2-0.2c0.1-0.1,0.4-0.3,0.6-0.5l0.6-0.4
		v0.6l-0.5,0.3c-0.4,0.2-0.7,0.4-0.7,0.5c-0.1,0.1-0.1,0.2-0.1,0.4v0.3h1.3L258.6,290.1L258.6,290.1z M256.7,289.5v-0.6
		c0-0.3-0.1-0.5-0.1-0.6c-0.1-0.1-0.2-0.2-0.4-0.2c-0.1,0-0.2,0-0.2,0.1c-0.1,0.1-0.1,0.1-0.2,0.2c-0.1,0.1-0.1,0.2-0.1,0.5v0.6
		L256.7,289.5L256.7,289.5z"/>
	<path class="st15" d="M260.6,272.5h-1.1v-4.2h3.7c0.5,0.7,0.9,1.3,1.1,2s0.4,1.4,0.4,2.1c0,1-0.2,1.9-0.6,2.7
		c-0.4,0.8-1,1.4-1.8,1.8c-0.8,0.4-1.7,0.6-2.7,0.6s-1.9-0.2-2.7-0.6s-1.5-1-1.9-1.8c-0.4-0.7-0.6-1.6-0.6-2.6
		c0-0.7,0.1-1.4,0.4-1.9c0.2-0.6,0.5-1,1-1.3s1-0.6,1.6-0.7l0.3,1.2c-0.5,0.1-0.9,0.3-1.2,0.5s-0.5,0.5-0.7,1
		c-0.2,0.4-0.2,0.8-0.2,1.4c0,0.6,0.1,1.1,0.3,1.6c0.2,0.5,0.4,0.8,0.7,1c0.3,0.2,0.6,0.5,1,0.6c0.6,0.2,1.3,0.4,2,0.4
		c0.9,0,1.6-0.2,2.2-0.5s1-0.7,1.3-1.3s0.4-1.2,0.4-1.9c0-0.5-0.1-1.1-0.3-1.6c-0.2-0.5-0.4-1-0.7-1.2h-1.8L260.6,272.5L260.6,272.5
		z"/>
	<path class="st15" d="M264.4,266.5h-7.2v-1.1h1.1c-0.5-0.3-0.8-0.5-1-0.8c-0.2-0.2-0.2-0.5-0.2-0.8c0-0.4,0.1-0.8,0.4-1.3l1.1,0.4
		c-0.2,0.3-0.2,0.6-0.2,0.9c0,0.2,0.1,0.5,0.2,0.7c0.2,0.2,0.4,0.4,0.7,0.4c0.4,0.1,0.9,0.2,1.4,0.2h3.7L264.4,266.5L264.4,266.5z"
		/>
	<path class="st15" d="M263.5,257.2c0.4,0.4,0.7,0.9,0.8,1.3c0.1,0.4,0.2,0.8,0.2,1.3c0,0.8-0.2,1.4-0.6,1.8
		c-0.4,0.4-0.8,0.6-1.5,0.6c-0.4,0-0.7-0.1-1-0.2c-0.3-0.2-0.5-0.4-0.7-0.6c-0.2-0.2-0.3-0.5-0.4-0.8c-0.1-0.2-0.1-0.6-0.2-1.1
		c-0.1-1-0.2-1.7-0.4-2.2c-0.2,0-0.3,0-0.3,0c-0.5,0-0.8,0.1-1,0.4c-0.3,0.3-0.4,0.8-0.4,1.4c0,0.5,0.1,1,0.3,1.3
		c0.2,0.3,0.5,0.5,1.1,0.6l-0.2,1.2c-0.5-0.1-0.9-0.3-1.2-0.5c-0.3-0.2-0.5-0.6-0.7-1.1c-0.2-0.5-0.2-1-0.2-1.6s0.1-1.1,0.2-1.5
		c0.1-0.4,0.3-0.7,0.5-0.8c0.2-0.2,0.5-0.3,0.8-0.4c0.2-0.1,0.6-0.1,1.1-0.1h1.6c1.1,0,1.8,0,2.1-0.1c0.3-0.1,0.6-0.2,0.8-0.3v1.3
		C264.2,257.1,263.9,257.2,263.5,257.2z M260.8,257.4c0.2,0.4,0.4,1.1,0.5,2c0.1,0.5,0.2,0.8,0.2,1.1c0.1,0.2,0.2,0.4,0.4,0.5
		c0.2,0.1,0.4,0.2,0.6,0.2c0.3,0,0.6-0.1,0.8-0.4c0.2-0.2,0.3-0.6,0.3-1.1c0-0.5-0.1-0.9-0.3-1.3c-0.2-0.4-0.5-0.6-0.8-0.8
		c-0.3-0.1-0.7-0.2-1.2-0.2L260.8,257.4L260.8,257.4z"/>
	<path class="st15" d="M267.1,254.2h-9.9v-1.1h0.9c-0.4-0.2-0.7-0.5-0.8-0.9c-0.2-0.3-0.3-0.7-0.3-1.2c0-0.6,0.2-1.1,0.5-1.6
		c0.3-0.5,0.8-0.8,1.3-1.1c0.5-0.2,1.2-0.4,1.9-0.4c0.7,0,1.4,0.1,2,0.4c0.6,0.2,1,0.7,1.3,1.1c0.3,0.5,0.5,1,0.5,1.6
		c0,0.4-0.1,0.8-0.2,1.1s-0.4,0.6-0.7,0.8h3.5L267.1,254.2L267.1,254.2z M260.9,253.1c0.9,0,1.6-0.2,2.1-0.5
		c0.4-0.4,0.7-0.8,0.7-1.3c0-0.5-0.2-1-0.7-1.4c-0.4-0.4-1.1-0.6-2.1-0.6c-0.9,0-1.6,0.2-2.1,0.5c-0.5,0.4-0.7,0.8-0.7,1.3
		c0,0.5,0.2,1,0.7,1.4C259.2,253,259.9,253.1,260.9,253.1z"/>
	<path class="st15" d="M264.4,246.5h-9.8v-1.2h3.6c-0.7-0.5-1-1.3-1-2.1c0-0.5,0.1-1,0.3-1.4c0.2-0.4,0.5-0.7,0.8-0.8
		c0.4-0.2,0.9-0.2,1.6-0.2h4.5v1.2h-4.5c-0.6,0-1,0.1-1.3,0.4s-0.4,0.6-0.4,1.1c0,0.4,0.1,0.7,0.3,1s0.4,0.5,0.8,0.7
		c0.3,0.1,0.8,0.2,1.3,0.2h3.9v1.2H264.4z"/>
	<path class="st15" d="M255.9,238.9h-1.4v-1.2h1.4V238.9z M264.4,238.9h-7.2v-1.2h7.1L264.4,238.9L264.4,238.9z"/>
	<path class="st15" d="M261.8,231.1l0.2-1.2c0.8,0.1,1.5,0.5,1.9,1s0.7,1.2,0.7,2c0,1-0.3,1.8-1,2.4s-1.6,0.9-2.8,0.9
		c-0.8,0-1.5-0.1-2.1-0.4c-0.6-0.2-1-0.7-1.3-1.1c-0.3-0.5-0.4-1.1-0.4-1.7c0-0.8,0.2-1.4,0.6-1.9c0.4-0.5,1-0.8,1.7-1l0.2,1.2
		c-0.5,0.1-0.8,0.3-1.1,0.6s-0.4,0.6-0.4,1c0,0.6,0.2,1.1,0.7,1.5c0.4,0.4,1.1,0.5,2.1,0.5c1,0,1.6-0.2,2.1-0.5
		c0.4-0.4,0.7-0.8,0.7-1.5c0-0.5-0.1-0.8-0.4-1.2C262.8,231.4,262.4,231.3,261.8,231.1z"/>
</g>
<g class="st7">
	<polygon class="st16" points="200.6,489.1 175.3,489.1 175.3,625.3 200.6,625.3 265,557.6 	"/>
	<polygon class="st17" points="198.1,490.7 175.3,490.7 175.3,623.6 198.1,623.6 262.5,557.6 	"/>
	<g class="st8">
		<path class="st18" d="M308.8,573.5c-9,0-16.3-7.3-16.3-16.3s7.3-16.3,16.3-16.3s16.3,7.3,16.3,16.3S317.8,573.5,308.8,573.5z
			 M308.8,544.9c-6.8,0-12.3,5.5-12.3,12.3s5.5,12.3,12.3,12.3s12.3-5.5,12.3-12.3S315.6,544.9,308.8,544.9z"/>
	</g>
	<polygon class="st19" points="197.3,493.2 175.3,493.2 175.3,621.2 197.3,621.2 259.3,557.2 	"/>
	<path class="st17" d="M449.6,568.7c1.2,0.7,2.2,0.1,2.2-1.3v-20.5c0-1.4-1-2-2.2-1.3L431.4,556c-1.2,0.7-1.2,1.8,0,2.5L449.6,568.7
		z"/>
	<path class="st17" d="M509.5,512.4c-0.7,1.2-0.1,2.2,1.3,2.2h20.5c1.4,0,2-1,1.3-2.2l-10.3-18.2c-0.7-1.2-1.8-1.2-2.5,0
		L509.5,512.4z"/>
	<path class="st17" d="M532.6,602.6c0.7-1.2,0.1-2.2-1.3-2.2h-20.5c-1.4,0-2,1-1.3,2.2l10.3,18.2c0.7,1.2,1.8,1.2,2.5,0L532.6,602.6
		z"/>
	<g class="st8">
		<g>
			<path class="st18" d="M825.2,596.2c-0.7,0-1.3-0.3-1.8-0.7l-17.3-17.1c-1-1-1-2.6,0-3.6c1-1,2.6-1,3.6,0l17.3,17.1
				c1,1,1,2.6,0,3.6C826.5,595.9,825.8,596.2,825.2,596.2z"/>
		</g>
		<g>
			<path class="st18" d="M807.9,596.2c-0.7,0-1.3-0.3-1.8-0.8c-1-1-1-2.6,0-3.6l17.3-17.1c1-1,2.6-1,3.6,0c1,1,1,2.6,0,3.6
				l-17.3,17.1C809.2,595.9,808.5,596.2,807.9,596.2z"/>
		</g>
	</g>
	<line class="st20" x1="226.1" y1="544.9" x2="226.1" y2="570.4"/>
	<line class="st19" x1="225.3" y1="544.9" x2="225.3" y2="570.4"/>
	<g class="st8">
		<path class="st18" d="M761.2,522.9v10.4c0,1.5-1.2,2.8-2.8,2.8h-12.6v3.8c0,0.9-0.7,1.3-1.5,0.9l-13-6.4c-0.8-0.4-0.8-1.1,0-1.5
			l13-6.4c0.8-0.4,1.5,0,1.5,0.9v3.2h9.9V523c0-1.5,1.2-2.8,2.8-2.8C760,520.2,761.2,521.4,761.2,522.9z"/>
	</g>
	<path class="st17" d="M593.8,545.7c-1.2-0.7-2.2-0.1-2.2,1.3v20.5c0,1.4,1,2,2.2,1.3l18.2-10.3c1.2-0.7,1.2-1.8,0-2.5L593.8,545.7z
		"/>
	<circle class="st21" cx="921.3" cy="657.4" r="87.2"/>
</g>
<g>
	<path class="st2" d="M266.5,114.6c0.1,0.1,0.1,0.1,0.1,0.2c-0.2,0.1-0.4,0-0.6,0c-23.9,0-47.8,0-71.8,0c-4.4,0-8.7,0-13,0
		c-0.3,0-0.3,0-0.3,0.3c0,2.8,0,5.7,0,8.5c0,0.1,0,0.3,0,0.4c0,0.1,0,0.1-0.1,0.1c-0.1,0-0.1-0.1-0.1-0.1c0-0.1,0-0.1,0-0.2
		c0-3.1,0-6.1,0-9.1C209.3,114.6,237.9,114.6,266.5,114.6z"/>
	<path class="st2" d="M266.5,147.1C266.6,147.1,266.6,147.1,266.5,147.1c0.1,0.1,0.1,0.2,0.1,0.2c0,3,0,6.1,0,9.1
		c-28.6,0-57.1,0-85.7,0v-0.1c0.1-0.1,0.2-0.1,0.3-0.1s0.3,0,0.4,0c28.1,0,56.3,0,84.5,0c0.6,0,0.6,0.1,0.6-0.6c0-2.7,0-5.5,0-8.2
		C266.4,147.3,266.4,147.2,266.5,147.1z"/>
	<path class="st2" d="M180.9,123.9c-0.1,0-0.1,0-0.1-0.1c0-0.1,0-0.1,0-0.2c0-2.9,0-5.9,0-8.8v-0.1c0-0.2,0-0.2,0.2-0.2
		c0.1,0,0.3,0,0.4,0c28.3,0,56.6,0,84.9,0c0.1,0,0.3-0.1,0.3,0.1c-0.1,0.1,0,0.2,0,0.3c0,2.9,0,5.7,0,8.5c0,0.4,0.1,0.3-0.3,0.3
		c-28.3,0-56.6,0-85,0C181.1,123.9,181,123.9,180.9,123.9z"/>
	<path class="st2" d="M266.5,147.1c0,0.1,0,0.2,0,0.3c0,2.9,0,5.7,0,8.6c0,0.4,0.1,0.3-0.3,0.3c-27.8,0-55.6,0-83.4,0
		c-0.7,0-1.4,0-2,0c0-0.1,0-0.2,0-0.3c0-2.9,0-5.8,0-8.7c0-0.3-0.1-0.3,0.3-0.3c28.4,0,56.8,0,85.2,0
		C266.4,147.1,266.4,147.1,266.5,147.1z"/>
	<path class="st2" d="M267,135.5L267,135.5c0,0.1,0,0.2,0,0.3l0,0l0,0c0,0,0,0,0.1,0C267.1,135.7,267.1,135.6,267,135.5L267,135.5
		L267,135.5z"/>
	<path class="st2" d="M267,135.8c0,0.1,0,0.2,0,0.3l0,0l0,0C267.1,136,267.1,135.9,267,135.8L267,135.8z"/>
	<path class="st2" d="M267,135.8L267,135.8L267,135.8L267,135.8L267,135.8z"/>
	<path class="st2" d="M267,135.2c0,0.1,0,0.2,0,0.3c0,0,0,0,0.1,0C267.1,135.4,267.1,135.3,267,135.2L267,135.2z"/>
	<path class="st2" d="M267,135.5L267,135.5L267,135.5L267,135.5L267,135.5z"/>
	<path class="st2" d="M222.3,132.4c-0.3-0.2-0.7-0.2-1-0.3c-1.3-0.2-2.4,0.2-3.3,1.1c-0.4,0.4-0.6,0.8-0.7,1.3
		c-0.1,0.7,0.1,1.4,0.6,1.9c0.2,0.2,0.4,0.4,0.6,0.6c0.4,0.3,0.7,0.5,1,0.8c0.2,0.1,0.3,0.3,0.5,0.4c0.3,0.3,0.3,0.6,0.2,1
		c-0.2,0.4-0.4,0.6-0.8,0.8c-0.3,0.1-0.6,0.1-1,0.1c-0.4,0-0.6-0.2-0.8-0.5c-0.1-0.1-0.1-0.2-0.1-0.3c0-0.2,0-0.2,0.2-0.2
		s0.3-0.2,0.4-0.3c0.1-0.2,0.2-0.4,0.2-0.6c0-0.3-0.1-0.6-0.3-0.8c-0.3-0.3-0.6-0.3-1-0.3c-0.7,0.1-1.1,0.8-1,1.4
		c0,0.1,0,0.2-0.1,0.3c-0.2,0.2-0.4,0.3-0.6,0.4c-0.2,0.1-0.3,0.2-0.5,0.1c-0.3,0-0.4-0.2-0.5-0.4c-0.1-0.2,0-0.3,0-0.4
		c0.3-1,0.5-2,0.7-3c0.2-1,0.5-1.9,0.7-2.8c0.1-0.2,0.1-0.2-0.1-0.2c-0.8,0-1.5,0-2.3,0c-0.1,0-0.2,0.1-0.2,0.2
		c-0.1,0.2-0.1,0.3-0.2,0.4c0,0-0.1,0-0.1-0.1c-1-0.9-2.7-1-3.8-0.1c-0.3,0.2-0.5,0.4-0.7,0.7c-0.6,0.7-1.1,1.4-1.5,2.1
		c-0.5,0.8-0.9,1.6-1.3,2.3c-0.2,0.3-0.4,0.5-0.6,0.8c-0.2,0.2-0.4,0.4-0.6,0.4c-0.4,0.1-0.6-0.1-0.6-0.4c0-0.2,0.1-0.4,0.1-0.5
		c0.8-3.1,1.5-6.1,2.3-9.2c0-0.1,0.1-0.2,0.1-0.3c-0.1,0-0.1,0-0.2,0c-1.4,0-2.8,0-4.2,0c-0.1,0-0.1,0-0.2,0s-0.1,0.1-0.1,0.1
		c-0.1,0.3-0.2,0.6-0.2,1c0.6,0,1.1,0,1.6,0c0.1,0.1,0,0.1,0,0.2c-0.4,1.6-0.7,3.2-1.1,4.8c-0.2,0.8-0.4,1.6-0.8,2.3
		c-0.5,1-1.2,1.6-2.1,2.1c-0.2,0.1-0.4,0.2-0.6,0.2c-0.4,0-0.6-0.2-0.6-0.5c-0.1-0.3-0.1-0.6,0.1-0.9c0.3-1.5,0.7-2.9,1.1-4.3
		c0.1-0.2,0.1-0.2,0.3-0.2c0.5,0,1,0,1.5,0c0.1,0,0.2-0.1,0.2-0.2c0.1-0.3,0.1-0.5,0.2-0.7c0-0.1,0.1-0.1,0-0.2c-0.6,0-1.2,0-1.8,0
		c0.2-0.9,0.4-1.7,0.6-2.6c-0.3,0-0.6,0-0.9,0c-0.1,0-0.2,0-0.3,0.2c-0.1,0.1-0.1,0.2-0.2,0.3c-0.3,0.5-0.6,1-1,1.4
		c-0.5,0.5-1,0.8-1.6,0.8c-0.3,0-0.6,0.1-0.9,0.1c-0.1,0-0.2,0-0.2,0.1c-0.1,0.4-0.2,0.7-0.3,1.1c0.5,0,1,0,1.6,0
		c-0.3,1.5-0.7,2.8-1.4,4.1c-0.3,0.5-0.5,0.9-0.9,1.2c-0.3,0.3-0.6,0.5-0.9,0.7c-0.3,0.1-0.5,0.1-0.8,0.1c-0.3-0.1-0.5-0.3-0.5-0.7
		c0-0.2,0.1-0.3,0.1-0.5c0.7-2.6,1.5-5.1,2.2-7.7c0.1-0.5,0.2-0.9,0.4-1.3c0.1-0.3,0-0.2,0.3-0.2c0.4,0,0.8,0,1.2,0
		c0.1,0,0.1,0,0.2,0s0.1,0,0.1-0.1c0.1-0.3,0.2-0.6,0.3-0.9c-0.1,0-0.1,0-0.2,0c-1.1,0-2.1,0-3.1,0c-0.9,0-1.8,0.1-2.7,0.3
		c-2,0.4-3.5,1.4-4.6,3.1c-0.7,1-1.1,2.1-1.5,3.3c-0.3,0.9-0.4,1.8-0.7,2.6c-0.2,0.6-0.3,1.1-0.6,1.6c-0.3,0.6-0.8,1-1.4,1.2
		c-0.7,0.2-1.3,0.2-1.8-0.4h-0.1c0,0.4,0,0.8,0,1.2c0,0.1,0.1,0.1,0.2,0.2c0.8,0.1,1.5,0.2,2.2,0c2-0.4,3.4-1.6,4.2-3.4
		c0.3-0.7,0.5-1.3,0.6-2c0.1-0.2,0.1-0.2,0.3-0.2c0.8,0,1.6,0,2.3,0c0.1,0,0.1,0,0.2,0c0,0.1,0,0.2-0.1,0.2
		c-0.2,0.8-0.5,1.6-0.7,2.4c-0.1,0.4-0.2,0.7-0.2,1.1c-0.1,1,0.5,1.7,1.4,1.9c0.6,0.2,1.3,0.2,1.9,0.1c1.1-0.2,2-0.7,2.7-1.4
		c0-0.1,0.1-0.1,0.1-0.1c0.1,0.1,0.1,0.2,0.1,0.2c0.2,0.9,0.8,1.4,1.7,1.4c0.5,0,0.9-0.1,1.3-0.2c0.8-0.2,1.6-0.6,2.2-1.1
		c0.2-0.2,0.4-0.3,0.6-0.5c0,0.1,0.1,0.2,0.1,0.3c0.2,0.9,0.9,1.5,1.8,1.5s1.7-0.4,2.5-0.9c0.5-0.4,0.8-0.7,1.2-1.1
		c0.1-0.1,0.1-0.1,0.2-0.2c0,0.1,0.1,0.2,0.1,0.2c0.3,1.4,1.7,2.3,3.1,2c0.8-0.2,1.4-0.6,1.9-1.1c0.1-0.1,0.1-0.1,0.2-0.1
		c0,0.1,0.1,0.1,0.1,0.1c0.4,0.7,1.1,1.1,1.9,1.1c1-0.1,1.8-0.5,2.5-1.3c0.1-0.1,0.1-0.1,0.2-0.2c0.1,0.1,0.1,0.1,0.1,0.2
		c0.4,0.6,1,1,1.7,1.2c1.2,0.4,2.4,0.2,3.5-0.4c0.5-0.3,0.9-0.6,1.2-1.1c0.7-1,0.4-2.3-0.5-3c-0.3-0.2-0.5-0.4-0.7-0.5
		s-0.5-0.4-0.8-0.5c-0.3-0.2-0.5-0.4-0.6-0.6c-0.3-0.5-0.3-1,0.2-1.3c0.2-0.2,0.5-0.3,0.7-0.3c0.2,0,0.4,0.1,0.6,0.2
		c0.1,0.1,0.1,0.2,0.1,0.3c-0.1,0.2-0.2,0.3-0.2,0.5c-0.1,0.3-0.1,0.6,0.2,0.8c0.3,0.3,0.7,0.5,1.1,0.4c0.5-0.2,0.8-0.4,0.8-0.9
		c0.1-0.2,0-0.4,0-0.6C223.4,133.2,223,132.7,222.3,132.4z M191.7,129.3c-0.5,1.6-0.9,3.2-1.4,4.8c-0.1,0.3-0.1,0.3-0.3,0.3
		c-0.8,0-1.6,0-2.4,0c-0.1,0-0.1,0-0.2-0.1c0.3-1.3,0.8-2.6,1.6-3.7c0.3-0.5,0.7-0.8,1.1-1.1c0.4-0.3,0.7-0.4,1.1-0.4
		c0.2,0,0.3,0,0.4,0C191.8,129.2,191.7,129.3,191.7,129.3z M212.3,134.8c-0.1,1.2-0.3,2.3-0.8,3.4c-0.1,0.2-0.2,0.4-0.3,0.6
		s-0.3,0.3-0.4,0.4c-0.5,0.4-1.1,0.1-1.3-0.4c-0.2-0.5-0.3-1-0.3-1.5c0.1-1.1,0.5-2,1-3c0.2-0.3,0.3-0.5,0.5-0.6
		c0.3-0.2,0.6-0.3,1-0.2c0.4,0.2,0.5,0.5,0.5,0.9C212.3,134.5,212.3,134.7,212.3,134.8z"/>
	<path class="st2" d="M267,135.8L267,135.8c-0.1-0.1-0.1-0.2-0.1-0.3c0,0,0,0,0.1,0c-0.1-0.1-0.1-0.2,0-0.3c0-0.4-0.1-0.8-0.2-1.2
		c-0.3-0.9-0.9-1.5-1.8-1.7c-1-0.3-1.9-0.1-2.8,0.5c-0.6,0.4-1.1,0.9-1.5,1.4c-0.7,0.8-1.3,1.7-1.9,2.6c-0.2,0.3-0.4,0.7-0.7,1
		c-0.5,0.6-1,1.1-1.7,1.5c-0.3,0.2-0.5,0.3-0.8,0.3c-0.5,0.1-0.8,0-1.1-0.5c-0.1-0.2-0.2-0.3-0.2-0.4c-0.2-0.5-0.2-1-0.1-1.5
		c0.1-1,0.5-1.8,1-2.7c0.2-0.3,0.4-0.5,0.6-0.7c0.2-0.2,0.4-0.4,0.7-0.5c0.5-0.2,0.9,0,1.1,0.5c-0.1,0-0.2,0.1-0.2,0.1
		c-0.2,0.1-0.4,0.1-0.5,0.2c-0.4,0.3-0.5,0.6-0.4,1c0.1,0.4,0.3,0.7,0.7,0.8c0.5,0.2,1,0.1,1.4-0.3c0.3-0.2,0.4-0.4,0.4-0.7
		c0.1-0.3,0.1-0.5,0-0.8c-0.2-0.8-0.6-1.3-1.3-1.6c-0.5-0.2-1-0.2-1.5-0.1c-0.8,0.1-1.4,0.5-2,0.9c-0.6,0.5-1.1,1-1.6,1.5
		c-0.5,0.6-1.1,1.2-1.6,1.8c-0.2,0.3-0.5,0.5-0.7,0.6c0,0.1-0.1,0.1-0.1,0.1V137c0-0.1,0-0.1,0.1-0.2c0.2-0.6,0.3-1.2,0.2-1.8
		c0-0.5-0.2-0.9-0.4-1.4c-0.5-0.9-1.4-1.4-2.4-1.3c-0.6,0.1-1.2,0.3-1.7,0.5c-0.1,0.1-0.1,0.1-0.2,0.1c0-0.2,0.1-0.3,0.1-0.5
		c-0.1,0-0.1,0-0.2,0c-1.1,0-2.2,0-3.4,0c-0.1,0-0.1,0-0.1,0c-0.1,0-0.1,0.1-0.1,0.1c-0.1,0.3-0.2,0.5-0.2,0.8c0.4,0.1,0.7,0,1,0.1
		c-0.5,1.4-1.2,2.5-2.3,3.5c0-0.1,0-0.1,0-0.2c0.1-0.7,0.1-1.5,0-2.2c-0.1-0.5-0.2-1-0.5-1.4c-0.3-0.5-0.8-0.9-1.3-1
		c-0.4-0.1-0.8-0.1-1.2-0.1c-0.7,0.1-1.3,0.4-1.9,0.9c-0.6,0.4-1,0.9-1.4,1.5c-0.7,0.9-1.4,1.9-1.9,2.8c-0.3,0.5-0.7,1-1.1,1.4
		c-0.4,0.3-0.7,0.6-1.2,0.7c-0.7,0.2-1.4,0.1-1.7-0.9c-0.3-1-0.4-2.1-0.2-3.1c0.2-1.2,0.7-2.4,1.3-3.4c0.5-0.9,1.1-1.6,1.9-2.3
		c0.1-0.1,0.3-0.2,0.4-0.3c0.4-0.2,0.7-0.1,1,0.2c0.1,0.1,0.2,0.2,0.3,0.3c0.2,0.2,0.3,0.5,0.4,0.7c0.2,0.6,0.3,1.2,0.2,1.8
		c0,0.2,0,0.2,0.2,0.2c0.3,0,0.5,0,0.8,0c0.2,0,0.2,0,0.2-0.2c0.3-1.2,0.6-2.3,0.8-3.5c0.1-0.2,0.1-0.4,0.1-0.6c-0.3,0-0.6,0-0.9,0
		c-0.2,0-0.2,0.1-0.3,0.2c-0.1,0.2-0.2,0.4-0.3,0.5c-0.1-0.1-0.1-0.1-0.2-0.2c-0.9-0.7-2-0.9-3.1-0.7c-0.8,0.1-1.5,0.5-2.1,0.9
		c-1.2,0.8-2,1.8-2.7,3c-0.9,1.5-1.3,3.1-1.2,4.8c0.1,0.7,0.2,1.4,0.5,2c0.5,1,1.1,1.7,2.2,2.1c0.7,0.3,1.4,0.3,2.1,0.1
		c1.2-0.3,2.2-1,2.9-1.9c0.1-0.1,0.2-0.2,0.2-0.3c0.1,0.3,0.2,0.6,0.3,0.9c0.5,0.9,1.3,1.4,2.3,1.5c0.9,0.1,1.7-0.2,2.5-0.6
		c0.9-0.4,1.6-1,2.3-1.7c0.6-0.5,1.1-1.1,1.6-1.7c0-0.1,0.1-0.1,0.1-0.1s0,0.1,0,0.1c0,0.1,0,0.1-0.1,0.1l0,0c0,0.1,0,0.1,0,0.1
		c-0.5,2.1-1,4.1-1.5,6.1c-0.1,0.2-0.1,0.3-0.1,0.5c0.2,0.1,0.4,0,0.5,0c0.7,0,1.4,0,2,0c0.2,0,0.2,0,0.3-0.2
		c0.3-1.1,0.6-2.2,0.8-3.3c0-0.1,0-0.1,0.1-0.2c0.1,0.1,0.1,0.1,0.2,0.2c0.5,0.4,1.1,0.6,1.7,0.6c0.4-0.1,0.8-0.2,1.1-0.3
		c0.7-0.3,1.3-0.7,1.9-1.2c0.9-0.7,1.6-1.4,2.4-2.2c0.1-0.1,0.2-0.2,0.4-0.3v0.1c0,0.1,0,0.1,0,0.1c-0.3,1.1-0.1,2.1,0.7,3
		c0.5,0.6,1.1,0.8,1.8,0.8c1.1,0,2-0.3,2.9-0.9c0.7-0.5,1.2-1,1.7-1.6c0.1-0.1,0.1-0.2,0.2-0.2c0.1,0.6,0.3,1.1,0.6,1.6
		c0.4,0.6,0.9,1,1.6,1.1c1.1,0.2,2.2,0.1,3.2-0.6c1.6-1,2.4-2.5,2.6-4.3C266.9,136,266.9,135.9,267,135.8z M238.3,138.5
		c-0.2,0.4-0.5,0.8-0.9,1.1c-0.2,0.2-0.4,0.3-0.6,0.3c-0.2,0.1-0.3,0.1-0.5,0c-0.2-0.1-0.4-0.2-0.5-0.4c-0.1-0.4-0.2-0.7-0.2-1.1
		c0-0.8,0.2-1.5,0.5-2.3c0.2-0.5,0.4-1,0.7-1.5c0.2-0.3,0.4-0.6,0.6-0.9c0.2-0.2,0.4-0.3,0.7-0.4c0.3-0.1,0.5,0,0.7,0.2
		c0.2,0.2,0.3,0.4,0.4,0.7C239.3,135.8,238.9,137.2,238.3,138.5z M248,134.8c-0.1,1.4-0.4,2.8-1.1,4c-0.3,0.5-0.6,0.8-1.1,0.9
		c-0.2,0.1-0.3,0.1-0.5,0.1c-0.4-0.1-0.7-0.3-0.8-0.8c0-0.2,0-0.5,0.1-0.7c0.3-1,0.5-2,0.8-3c0.1-0.4,0.3-0.8,0.5-1.1
		c0.3-0.3,0.5-0.5,0.9-0.6c0.5-0.1,1,0.2,1,0.7C248,134.5,248,134.7,248,134.8z M265.1,134.8c-0.1,1-0.3,1.9-0.6,2.9
		c-0.2,0.5-0.4,0.9-0.6,1.3c-0.3,0.4-0.6,0.7-1.1,0.8c-0.6,0.2-1-0.1-1.1-0.7c-0.1-0.4-0.1-0.7,0-1.1c0.2-1.3,0.6-2.5,1.2-3.6
		c0.2-0.3,0.3-0.5,0.6-0.8c0.2-0.2,0.3-0.3,0.5-0.3c0.4-0.2,0.8,0,1,0.4c0.1,0.3,0.2,0.5,0.2,0.8
		C265.1,134.6,265.1,134.7,265.1,134.8z"/>
	<path class="st2" d="M267,135.5c-0.1,0.1-0.1,0.2,0,0.3c0,0,0,0,0.1,0l0,0l0,0C267,135.7,267,135.6,267,135.5L267,135.5
		C267,135.5,267,135.5,267,135.5C267,135.5,267,135.5,267,135.5z"/>
	<path class="st2" d="M267,135.8L267,135.8c-0.1,0.1-0.1,0.2,0,0.3C267,136,267,135.9,267,135.8z"/>
	<path class="st2" d="M267,135.8L267,135.8L267,135.8z"/>
	<path class="st2" d="M267,135.5L267,135.5c0-0.1,0-0.2,0-0.3C266.9,135.3,266.9,135.4,267,135.5z"/>
	<path class="st2" d="M267,135.5L267,135.5L267,135.5z"/>
	<path class="st2" d="M242.2,137.2c0.1,0,0.1,0.1,0.1,0.1l0,0C242.3,137.2,242.3,137.1,242.2,137.2z"/>
	<path class="st2" d="M242.3,137.1C242.3,137.1,242.3,137.1,242.3,137.1c0.1,0.1,0,0.1,0,0.2C242.3,137.2,242.4,137.2,242.3,137.1
		C242.3,137.1,242.3,137.1,242.3,137.1z"/>
	<path class="st2" d="M250.5,137L250.5,137L250.5,137z"/>
	<path class="st2" d="M250.4,137C250.5,137,250.5,137,250.4,137C250.5,137,250.4,137,250.4,137C250.4,137,250.4,137,250.4,137z"/>
</g>
<rect id="XMLID_1_" x="346" y="114.6" class="st2" width="332" height="252"/>
<rect id="XMLID_6_" x="352" y="120.6" class="st22" width="320" height="240"/>
<rect x="782.9" y="113.6" class="st2" width="4.1" height="17.2"/>
<polygon class="st2" points="781.4,346.6 789.6,344.7 784.4,358.4 792.1,355.8 786.1,368.4 790.6,366.8 778.8,380.3 778.4,372 
	781.6,370.3 785.3,361.2 777,363.4 "/>
<path class="st2" d="M775.5,188.9l3.5,4.9c0.6,0.6,0.6,1.7-0.1,2.4l-2.3,2.3c-0.7,0.7-1.8,0.8-2.4,0.1l-4.9-3.5
	c-0.3,2.2,0.4,4.6,2.1,6.3c2,2,4.9,2.6,7.5,1.8l16.4,16.4c0.8,0.8,2,0.8,2.7,0l1.9-1.9c0.8-0.8,0.8-2,0-2.7l-16.4-16.4
	c0.8-2.5,0.2-5.4-1.8-7.5C780.1,189.2,777.7,188.5,775.5,188.9z M797.6,217.1c-0.4,0.4-1,0.4-1.4,0c-0.4-0.4-0.4-1,0-1.4
	c0.4-0.4,1-0.4,1.4,0C798,216.2,798,216.8,797.6,217.1z"/>
<g class="st7">
	<circle class="st23" cx="848.3" cy="204.4" r="4.9"/>
	<circle class="st23" cx="848.3" cy="282.5" r="4.9"/>
	<circle class="st23" cx="848.3" cy="360.5" r="4.9"/>
	<circle class="st24" cx="848.3" cy="125.4" r="4.9"/>
</g>
<g id="New_lines">
	<g>
		<g>
			<path class="st25" d="M608.8,616.3c0,1.1-0.8,2-1.8,2h-18.3c-0.2,0.1-0.4,0.1-0.5,0.1c-0.4,0-0.7-0.1-1.1-0.4l-63.1-56.2
				c-0.1-0.1-0.1-0.1-0.2-0.2h-23.3c-0.1,0.1-0.1,0.1-0.2,0.2L437.3,618c-0.3,0.3-0.7,0.4-1.1,0.4c-0.1,0-0.3,0-0.4,0c0,0,0,0,0,0
				h-18.9c-1,0-1.7-0.9-1.7-2s0.8-2,1.7-2h18.8l61-54.4l0.2,0.2c0-0.1,0-0.2-0.1-0.3l-0.2,0.1L432,504.8l-0.1-0.1
				c-0.2-0.2-0.4-0.4-0.5-0.7c0-0.1-0.1-0.1-0.1-0.2c-0.1-0.2-0.1-0.5-0.1-0.7v-18.9c0-1.1,0.8-2,1.7-2c1,0,1.7,0.9,1.7,2v17.9
				l65.2,55.5h24.7l65.9-56.1c0,0,0.1-0.1,0.1-0.1l-0.2-17.2c0-1.1,0.8-2,1.7-2c0,0,0,0,0,0c1,0,1.7,0.9,1.8,2l0.2,18.4
				c0,0.9-0.6,1.8-1.3,2l0,0c-0.1,0.1-0.1,0.1-0.2,0.2l-64.4,54.9v0c0,0.2,0,0.4-0.1,0.6l60.7,54.1h18.3
				C608.1,614.3,608.8,615.2,608.8,616.3z"/>
		</g>
		<g>
			<path class="st25" d="M497,560.1l-0.2-0.2l0.2-0.1C496.9,559.9,496.9,560,497,560.1z"/>
		</g>
		<g>
			<path class="st25" d="M497,560.1l-0.2-0.2l0.2-0.1C496.9,559.9,496.9,560,497,560.1z"/>
		</g>
	</g>
	<g>
		<g>
			<g>
				<path class="st26" d="M497,560.1l-0.2-0.2l0.2-0.1C496.9,559.9,496.9,560,497,560.1z"/>
				<path class="st26" d="M607.1,612.8h-17.9L529.8,560l63.4-54c0,0,0.1,0,0.1-0.1l0,0h0c1.2-0.5,2-1.8,2-3.3l-0.2-18.4
					c0-1.9-1.4-3.5-3.1-3.5c-1.7,0-3,1.6-3,3.5l0.2,16.4l-65.1,55.4h-23.8L436,501.4v-17.2c0-1.9-1.4-3.5-3.1-3.5s-3,1.6-3,3.5v18.9
					c0,0.1,0,0.2,0,0.4c0,0.1,0,0.2,0,0.2c0,0.2,0.1,0.3,0.1,0.5c0,0.1,0,0.2,0.1,0.2c0,0.1,0,0.1,0.1,0.2c0.2,0.5,0.5,1,0.9,1.3
					l0.1,0.1l63.3,54l-59.3,52.8h-18.3c-1.7,0-3.1,1.6-3.1,3.5s1.4,3.5,3.1,3.5h18.8c0.2,0,0.3,0,0.5,0c0.7,0,1.3-0.2,1.9-0.7
					l62.9-56h22.4l63,56.1c0.6,0.5,1.2,0.7,1.9,0.7c0.2,0,0.5,0,0.7-0.1h18.1c1.7,0,3.1-1.6,3.1-3.5S608.8,612.8,607.1,612.8z
					 M607.1,618.3h-18.3c-0.2,0.1-0.4,0.1-0.5,0.1c-0.4,0-0.7-0.1-1.1-0.4l-63.1-56.2c-0.1-0.1-0.1-0.1-0.2-0.2h-23.3
					c-0.1,0.1-0.1,0.1-0.2,0.2L437.3,618c-0.3,0.3-0.7,0.4-1.1,0.4c-0.1,0-0.3,0-0.4,0c0,0,0,0,0,0h-18.9c-1,0-1.7-0.9-1.7-2
					s0.8-2,1.7-2h18.8l61-54.4L432,504.8l-0.1-0.1c-0.2-0.2-0.4-0.4-0.5-0.7c0-0.1-0.1-0.1-0.1-0.2c-0.1-0.2-0.1-0.5-0.1-0.7v-18.9
					c0-1.1,0.8-2,1.7-2c1,0,1.7,0.9,1.7,2v17.9l65.2,55.5h24.7l65.9-56.1c0,0,0.1-0.1,0.1-0.1l-0.2-17.2c0-1.1,0.8-2,1.7-2
					c0,0,0,0,0,0c1,0,1.7,0.9,1.8,2l0.2,18.4c0,0.9-0.6,1.8-1.3,2l0,0c-0.1,0.1-0.1,0.1-0.2,0.2l-64.4,54.9v0c0,0.2,0,0.4-0.1,0.6
					l60.7,54.1h18.3c1,0,1.8,0.9,1.8,2S608.1,618.3,607.1,618.3z"/>
			</g>
		</g>
	</g>
	<g>
		<path class="st26" d="M859.5,484.2c0-1.9-1.3-3.5-2.9-3.5c-1.6,0-2.8,1.6-2.8,3.5l0.1,16.6l-118.8,112l-16.9-0.1
			c-1.6,0-2.8,1.6-2.8,3.5c0,1.9,1.3,3.5,2.8,3.5l18.8,0l121.5-114.5l1.1-1.1L859.5,484.2z M736.6,618.4l-18.4,0
			c-0.9,0-1.6-0.9-1.6-2c0-1.1,0.7-2,1.6-2l17.3,0l119.7-112.8l-0.1-17.4c0-1.1,0.7-2,1.6-2c0,0,0,0,0,0c0.9,0,1.6,0.9,1.6,2
			l0.1,19.4L736.6,618.4z"/>
	</g>
	<g>
		<path class="st25" d="M858.4,503.6L736.6,618.4l-18.4,0c-0.9,0-1.6-0.9-1.6-2c0-1.1,0.7-2,1.6-2l17.3,0l119.7-112.8l-0.1-17.4
			c0-1.1,0.7-2,1.6-2c0,0,0,0,0,0c0.9,0,1.6,0.9,1.6,2L858.4,503.6z"/>
	</g>
</g>
</svg>
