<?xml version="1.0" encoding="utf-8"?>
<!-- Generator: Adobe Illustrator 19.2.1, SVG Export Plug-In . SVG Version: 6.00 Build 0)  -->
<svg version="1.1" id="Layer_1" xmlns="http://www.w3.org/2000/svg" xmlns:xlink="http://www.w3.org/1999/xlink" x="0px" y="0px"
	 viewBox="0 0 275 297.5" style="enable-background:new 0 0 275 297.5;" xml:space="preserve">
<style type="text/css">
	.st0{fill:#CCCCCC;}
	.st1{fill:#C6122C;}
	.st2{fill:#B3B3B3;}
	.st3{fill:#000918;}
	.st4{fill:#F9C023;}
	.st5{fill:#E8AD1A;}
	.st6{fill:#39B54A;}
	.st7{fill:#2DA038;}
	.st8{fill:#E52A1C;}
	.st9{fill:#D61E1A;}
	.st10{fill:none;stroke:#FFFFFF;stroke-width:1.1098;stroke-miterlimit:10;}
	.st11{fill:#7A7A7A;}
	.st12{fill:#CC9417;}
	.st13{fill:#009245;}
	.st14{fill:#ED1C24;}
	.st15{opacity:0.5;}
	.st16{fill:#93092A;}
</style>
<path class="st0" d="M83.5,158.3l-3,1l0.6,27.7L94,198.1l41.5,9.5l46.6-7.4l13-17.3c0,0,0.8-18.7,0-19.5s-2.6-5.2-2.6-5.2l-25,12.8
	l-50.6,8.5L83.5,158.3z"/>
<path class="st1" d="M23,54.3v9.2l14.9,20.9l49.3,18l54.4,4l69.6-8L252,69.1V54.3l-36,34c0,0-56.1,11.6-56.5,11.8s-51-1-51.4-1
	S57,86.8,56.1,86.4S29.6,65.5,29.6,65.5L23,54.3z"/>
<polygon class="st2" points="82.4,127.9 82.4,123 192.6,123.9 192.6,131.1 136,135.9 "/>
<path class="st2" d="M62.8,178.4l-2.3,4.6l1.1,5.4l11,15.2l36.2,14.6l38,1.5l37.3-7l20-11.7l9.3-11.1l1.4-6.1l-2.7-5.4l-3.6,3
	c0,0-13.8,18.6-13.8,18.8s-49.8,13-49.8,13l-41.2-4.8l-26-9.9c0,0-11.6-11.8-11.6-12.1S62.8,178.4,62.8,178.4z"/>
<path class="st3" d="M4509,147.5v19c0,8.8-7.2,16-16,16h-241c-8.8,0-16-7.2-16-16v-19H4509z"/>
<path class="st4" d="M4509,57.5v90h-273v-90c0-8.8,7.2-16,16-16h241C4501.8,41.5,4509,48.7,4509,57.5z"/>
<path class="st5" d="M4509,57.5v10c0-8.8-7.2-16-16-16h-241c-8.8,0-16,7.2-16,16v-10c0-8.8,7.2-16,16-16h241
	C4501.8,41.5,4509,48.7,4509,57.5z"/>
<rect x="4322.3" y="22.8" class="st4" width="100.5" height="18.7"/>
<rect x="4322.3" y="0.8" class="st6" width="100.5" height="22"/>
<rect x="4322.3" y="0.8" class="st7" width="100.5" height="7.1"/>
<path class="st8" d="M4312.9,0.8l-7.5-120.3c0-8.8,7.2-16,16-16h102.3c8.8,0,16,7.2,16,16l-7.5,120.3
	C4432.2,0.8,4312.9,0.8,4312.9,0.8z"/>
<path class="st9" d="M4439.6-119.5l-0.5,7.2c-1.7-7-8-12.3-15.5-12.3h-102.2c-7.5,0-13.9,5.3-15.5,12.3l-0.5-7.3c0-8.8,7.2-16,16-16
	h102.2C4432.4-135.5,4439.6-128.3,4439.6-119.5z"/>
<g>
	<path class="st0" d="M212.6,182.1c0,19.4-33.6,35.1-75.1,35.1s-75.1-15.7-75.1-35.1c0-1.2,0.1-2.5,0.4-3.7l0,0
		c1.7-7.7,8.9-14.7,19.5-20.1v21.4c0,13.2,24.7,23.9,55.1,23.9s55.1-10.7,55.1-23.9v-21.4c10.7,5.4,17.8,12.4,19.5,20.1l0,0
		C212.4,179.6,212.6,180.8,212.6,182.1z"/>
	<line class="st10" x1="212.2" y1="178.4" x2="212.2" y2="178.4"/>
	<line class="st10" x1="62.8" y1="178.4" x2="62.8" y2="178.4"/>
	<path class="st2" d="M235.4,224.7c0,25.3-43.8,45.7-97.9,45.7S39.7,250,39.7,224.7l23.2-46.4c-0.3,1.2-0.4,2.5-0.4,3.7
		c0,19.4,33.6,35.1,75.1,35.1s75.1-15.7,75.1-35.1c0-1.2-0.1-2.5-0.4-3.7L235.4,224.7z"/>
	<path class="st11" d="M235.4,224.7c0,25.3-43.8,45.7-97.8,45.7s-97.9-20.5-97.9-45.7l0.2-0.4c3.1,24,45.6,42.9,97.7,42.9
		c52,0,94.6-19,97.7-42.9L235.4,224.7z"/>
	<path class="st4" d="M272.6,231.9c0,35.5-60.5,64.2-135.1,64.2S2.4,267.4,2.4,231.9c0-22,23.2-41.3,58.6-52.9
		c0.5-0.1,1-0.3,1.5-0.5c0.1,0,0.3-0.1,0.4-0.1l-0.4,0.8l-22.6,45.2l-0.2,0.4c0,25.3,43.8,45.7,97.9,45.7c54,0,97.8-20.5,97.8-45.7
		l-0.2-0.4l-22.6-45.2l-0.4-0.8c0.1,0,0.3,0.1,0.4,0.1c0.5,0.2,1,0.3,1.5,0.5C249.4,190.5,272.6,209.9,272.6,231.9z"/>
	<path class="st12" d="M272.6,231.9c0,35.5-60.5,64.2-135.1,64.2S2.4,267.4,2.4,231.9c0-0.8,0-1.6,0.1-2.3
		c2.7,34.3,62.1,61.8,135,61.8s132.4-27.5,135-61.8C272.6,230.3,272.6,231.1,272.6,231.9z"/>
	<path class="st6" d="M192.6,143.7v35.9c0,13.2-24.7,23.9-55.1,23.9s-55.1-10.7-55.1-23.9v-35.9c0,4.2,2.5,8.1,6.8,11.5
		c3.1,2.4,7.1,4.6,11.9,6.4c9.7,3.7,22.5,6,36.5,6s26.8-2.3,36.5-6c4.8-1.8,8.8-4,11.9-6.4C190.2,151.8,192.6,147.9,192.6,143.7z"/>
	<path class="st2" d="M192.6,126.8v17c0,7.2-7.2,13.6-18.6,18c-9.7,3.7-22.5,6-36.5,6s-26.8-2.3-36.5-6c-11.4-4.4-18.6-10.8-18.6-18
		v-17c3.7,0.9,7.5,1.7,11.4,2.4c13.5,2.4,28.2,3.8,43.7,3.8s30.3-1.3,43.7-3.8C185.2,128.4,188.9,127.6,192.6,126.8z"/>
	<path class="st13" d="M192.6,143.7v3.4c0,7.2-7.2,13.6-18.6,18c-9.7,3.7-22.5,6-36.5,6s-26.8-2.3-36.5-6
		c-11.4-4.4-18.6-10.8-18.6-18v-3.4c0,4.2,2.5,8.1,6.8,11.5c3.1,2.4,7.1,4.6,11.9,6.4c9.7,3.7,22.5,6,36.5,6s26.8-2.3,36.5-6
		c4.8-1.8,8.8-4,11.9-6.4C190.2,151.8,192.6,147.9,192.6,143.7z"/>
	<path class="st11" d="M192.6,176.2v3.4c0,7.2-7.2,13.6-18.6,18c-9.7,3.7-22.5,6-36.5,6s-26.8-2.3-36.5-6
		c-11.4-4.4-18.6-10.8-18.6-18v-3.4c0,4.2,2.5,8.1,6.8,11.5c3.1,2.4,7.1,4.6,11.9,6.4c9.7,3.7,22.5,6,36.5,6s26.8-2.3,36.5-6
		c4.8-1.8,8.8-4,11.9-6.4C190.2,184.3,192.6,180.4,192.6,176.2z"/>
	<path class="st1" d="M252,54.3v28.9c0,18.8-24,35.2-59.4,43.6c-3.7,0.9-7.5,1.7-11.4,2.4c-13.5,2.4-28.2,3.8-43.7,3.8
		s-30.3-1.3-43.7-3.8c-3.9-0.7-7.7-1.5-11.4-2.4C47,118.3,23,101.9,23,83.1V54.3c0,5,1.7,9.9,4.9,14.4C42.1,89.1,85.8,104,137.5,104
		s95.4-14.9,109.6-35.3C250.3,64.1,252,59.3,252,54.3z"/>
	<g>
		<path class="st14" d="M252,54.3c0,5-1.7,9.9-4.9,14.4C232.9,89.1,189.2,104,137.5,104S42.1,89.1,27.9,68.7
			c-3.2-4.6-4.9-9.4-4.9-14.4C23,26.8,74.2,4.5,137.5,4.5S252,26.8,252,54.3z"/>
		<g class="st15">
			<path class="st16" d="M144.2,22.8c37.7,2.3,65.3,18.2,61.6,35.6l-11.4-0.7l13.7,16.8l20.5-14.7l-11.4-0.7
				c4.3-20.3-27.8-38.8-71.8-41.5c-28.2-1.7-54.3,3.6-70.7,12.9l4.9,6C93.1,26.9,117.6,21.2,144.2,22.8L144.2,22.8z"/>
			<path class="st16" d="M195.4,72.1c-13.5,9.6-38,15.2-64.7,13.6C93,83.4,65.5,67.5,69.2,50.1l11.4,0.7L66.9,34.1L46.4,48.8l17.1,1
				l-5.7-0.3C53.5,69.8,85.6,88.3,129.6,91c28.2,1.7,54.3-3.6,70.7-12.9L195.4,72.1z"/>
		</g>
	</g>
</g>
</svg>
