<?xml version="1.0" encoding="utf-8"?>
<!-- Generator: Adobe Illustrator 19.2.1, SVG Export Plug-In . SVG Version: 6.00 Build 0)  -->
<svg version="1.1" id="Layer_1" xmlns="http://www.w3.org/2000/svg" xmlns:xlink="http://www.w3.org/1999/xlink" x="0px" y="0px"
	 viewBox="0 0 275 297.5" style="enable-background:new 0 0 275 297.5;" xml:space="preserve">
<style type="text/css">
	.st0{fill:#B3B3B3;}
	.st1{fill:#C6122C;}
	.st2{fill:#CCCCCC;}
	.st3{fill:#000918;}
	.st4{fill:#F9C023;}
	.st5{fill:#E8AD1A;}
	.st6{fill:#39B54A;}
	.st7{fill:#2DA038;}
	.st8{fill:#E52A1C;}
	.st9{fill:#D61E1A;}
	.st10{fill:none;stroke:#FFFFFF;stroke-width:1.1098;stroke-miterlimit:10;}
	.st11{fill:#ED1C24;}
	.st12{opacity:0.5;}
	.st13{fill:#93092A;}
	.st14{fill:#7A7A7A;}
	.st15{fill:#CC9417;}
</style>
<polygon class="st0" points="82.4,167.6 82.4,162.7 192.6,163.6 192.6,170.8 136,175.6 "/>
<path class="st1" d="M23,90.2v9.2l14.9,20.9l49.3,18l54.4,4l69.6-8L252,105V90.2l-36,34c0,0-56.1,11.6-56.5,11.7s-51-1-51.4-1
	s-51.1-12.2-52-12.6s-26.5-20.9-26.5-20.9L23,90.2z"/>
<path class="st2" d="M83.5,158.3l-3,1l0.6,27.7L94,198.1l41.5,9.5l46.6-7.4l13-17.3c0,0,0.8-18.7,0-19.5s-2.6-5.2-2.6-5.2l-25,12.8
	l-50.6,8.5L83.5,158.3z"/>
<path class="st0" d="M62.8,178.4l-2.3,4.6l1.1,5.4l11,15.2l36.2,14.6l38,1.5l37.3-7l20-11.7l9.3-11.1l1.4-6.1l-2.7-5.4l-3.6,3
	c0,0-13.8,18.6-13.8,18.8s-49.8,13-49.8,13l-41.2-4.8l-26-9.9c0,0-11.6-11.8-11.6-12.1S62.8,178.4,62.8,178.4z"/>
<path class="st3" d="M4509,147.5v19c0,8.8-7.2,16-16,16h-241c-8.8,0-16-7.2-16-16v-19H4509z"/>
<path class="st4" d="M4509,57.5v90h-273v-90c0-8.8,7.2-16,16-16h241C4501.8,41.5,4509,48.7,4509,57.5z"/>
<path class="st5" d="M4509,57.5v10c0-8.8-7.2-16-16-16h-241c-8.8,0-16,7.2-16,16v-10c0-8.8,7.2-16,16-16h241
	C4501.8,41.5,4509,48.7,4509,57.5z"/>
<rect x="4322.3" y="22.8" class="st4" width="100.5" height="18.7"/>
<rect x="4322.3" y="0.8" class="st6" width="100.5" height="22"/>
<rect x="4322.3" y="0.8" class="st7" width="100.5" height="7.1"/>
<path class="st8" d="M4312.9,0.8l-7.5-120.3c0-8.8,7.2-16,16-16h102.3c8.8,0,16,7.2,16,16l-7.5,120.3
	C4432.2,0.8,4312.9,0.8,4312.9,0.8z"/>
<path class="st9" d="M4439.6-119.5l-0.5,7.2c-1.7-7-8-12.3-15.5-12.3h-102.2c-7.5,0-13.9,5.3-15.5,12.3l-0.5-7.3c0-8.8,7.2-16,16-16
	h102.2C4432.4-135.5,4439.6-128.3,4439.6-119.5z"/>
<path class="st2" d="M212.6,182.1c0,19.4-33.6,35.1-75.1,35.1s-75.1-15.7-75.1-35.1c0-1.3,0.1-2.5,0.4-3.7l0,0
	c1.4-6.3,6.5-12.2,14.2-17.1c1.8,0.5,3.5,0.9,5.4,1.4v17c0,13.2,24.7,23.9,55.1,23.9s55.1-10.7,55.1-23.9v-17
	c1.8-0.4,3.6-0.9,5.4-1.4c7.7,4.9,12.7,10.7,14.2,17.1C212.4,179.6,212.6,180.8,212.6,182.1z"/>
<line class="st10" x1="62.8" y1="178.4" x2="62.8" y2="178.4"/>
<path class="st0" d="M235.3,224.7c0,25.3-43.8,45.7-97.9,45.7c-54,0-97.9-20.5-97.9-45.7l23.2-46.4c-0.3,1.2-0.4,2.5-0.4,3.7
	c0,19.4,33.6,35.1,75.1,35.1s75.1-15.7,75.1-35.1c0-1.3-0.1-2.5-0.4-3.7l0,0L235.3,224.7z"/>
<path class="st4" d="M272.6,231.9c0,35.5-60.5,64.2-135.1,64.2S2.4,267.4,2.4,231.9c0-22.3,24-42,60.4-53.5l-23.2,46.4
	c0,25.3,43.8,45.7,97.9,45.7c54,0,97.9-20.5,97.9-45.7l-23.2-46.4C248.6,189.8,272.6,209.5,272.6,231.9z"/>
<path class="st1" d="M252,90.2V119c0,17.8-21.6,33.5-54.1,42.3c-1.8,0.5-3.5,0.9-5.4,1.4c-3.7,0.9-7.5,1.7-11.4,2.4
	c-13.5,2.4-28.2,3.8-43.7,3.8s-30.3-1.3-43.7-3.8c-3.9-0.7-7.7-1.5-11.4-2.4c-1.8-0.4-3.6-0.9-5.4-1.4C44.6,152.5,23,136.9,23,119
	V90.2c0,5,1.7,9.9,4.9,14.4c14.2,20.4,57.9,35.3,109.6,35.3s95.4-14.9,109.6-35.3C250.3,100,252,95.2,252,90.2z"/>
<path class="st0" d="M192.6,162.7v17c0,13.2-24.7,23.9-55.1,23.9s-55.1-10.7-55.1-23.9v-17c3.7,0.9,7.5,1.7,11.4,2.4
	c13.5,2.4,28.2,3.8,43.7,3.8s30.3-1.3,43.7-3.8C185.1,164.3,188.9,163.5,192.6,162.7z"/>
<path class="st11" d="M252,90.2c0,5-1.7,9.9-4.9,14.4c-14.2,20.4-57.9,35.3-109.6,35.3S42.1,125,27.9,104.6
	C24.7,100,23,95.2,23,90.2c0-27.5,51.3-49.8,114.5-49.8S252,62.7,252,90.2z"/>
<g>
	<g class="st12">
		<path class="st13" d="M209.8,94.5c-3.9,18.3-39.3,31.1-79,28.7l1.2-5.5l-37.7,6.1l34.2,10.4l1.2-5.5c46.3,2.8,87.6-12.2,92.1-33.5
			c2.9-13.6-9.9-26.5-31.7-34.8l-13.5,2.2C198.9,69.5,212.6,81.6,209.8,94.5L209.8,94.5z"/>
		<path class="st13" d="M99.2,117.7c-22.3-6.9-35.9-19-33.2-31.9c3.9-18.3,39.3-31.1,79-28.7l-1.2,5.5l37.7-6.1l-34.2-10.4l-1.8,8.3
			l0.6-2.8C99.8,48.8,58.5,63.8,54,85.1c-2.9,13.6,9.9,26.5,31.7,34.8L99.2,117.7z"/>
	</g>
</g>
<path class="st14" d="M235.4,224.8c0,25.3-43.8,45.7-97.8,45.7S39.7,250,39.7,224.8l0.2-0.4c3.1,24,45.6,42.9,97.7,42.9
	c52,0,94.6-19,97.7-42.9L235.4,224.8z"/>
<path class="st15" d="M272.6,231.9c0,35.5-60.5,64.2-135.1,64.2S2.4,267.4,2.4,231.9c0-0.8,0-1.6,0.1-2.3
	c2.7,34.3,62.1,61.8,135,61.8s132.4-27.5,135-61.8C272.6,230.3,272.6,231.1,272.6,231.9z"/>
<path class="st14" d="M192.6,176.3v3.4c0,7.2-7.2,13.6-18.6,18c-9.7,3.7-22.5,6-36.5,6s-26.8-2.3-36.5-6
	c-11.4-4.4-18.6-10.8-18.6-18v-3.4c0,4.2,2.5,8.1,6.8,11.5c3.1,2.4,7.1,4.6,11.9,6.4c9.7,3.7,22.5,6,36.5,6s26.8-2.3,36.5-6
	c4.8-1.8,8.8-4,11.9-6.4C190.2,184.4,192.6,180.5,192.6,176.3z"/>
</svg>
