<?xml version="1.0" encoding="utf-8"?>
<!-- Generator: Adobe Illustrator 19.2.1, SVG Export Plug-In . SVG Version: 6.00 Build 0)  -->
<svg version="1.1" id="Layer_1" xmlns="http://www.w3.org/2000/svg" xmlns:xlink="http://www.w3.org/1999/xlink" x="0px" y="0px"
	 viewBox="0 0 100 100" style="enable-background:new 0 0 100 100;" xml:space="preserve">
<style type="text/css">
	.st0{fill:#028ABE;}
</style>
<g>
	<g>
		<path class="st0" d="M68.4,48.4c-0.9,0-1.7,0.7-1.7,1.7V73H54.9v-9.3c0-0.9-0.8-1.6-1.6-1.6h-8.6c-0.9,0-1.7,0.8-1.7,1.6V73H31
			V50.9c0-0.9-0.8-1.6-1.7-1.6c-0.9,0-1.6,0.8-1.6,1.6v23.9c0,0.9,0.8,1.6,1.6,1.6h15.2c0.9,0,1.6-0.8,1.6-1.6v-9.4h5.3v9.3
			c0,0.9,0.8,1.6,1.7,1.6h15.2c0.9,0,1.6-0.8,1.6-1.6V50.1C70,49.2,69.3,48.4,68.4,48.4L68.4,48.4z"/>
		<path class="st0" d="M77.6,49.8L64.3,36.4v-9.1c0-0.9-0.8-1.7-1.7-1.7c-0.9,0-1.6,0.8-1.6,1.7v5.7L50.1,22.1
			c-0.3-0.3-0.8-0.5-1.1-0.5c-0.4,0-0.9,0.2-1.2,0.5L20.3,49.5c-0.7,0.7-0.7,1.7,0,2.3c0.6,0.7,1.6,0.7,2.3,0l26.3-26.3L75.2,52
			c0.3,0.3,0.7,0.4,1.2,0.4c0.4,0,0.9-0.2,1.2-0.4C78.1,51.5,78.1,50.4,77.6,49.8L77.6,49.8z"/>
	</g>
</g>
</svg>
